<?xml version="1.0" standalone="no"?>
<!DOCTYPE svg PUBLIC "-//W3C//DTD SVG 20010904//EN"
 "http://www.w3.org/TR/2001/REC-SVG-20010904/DTD/svg10.dtd">
<svg version="1.0" xmlns="http://www.w3.org/2000/svg"
 width="593.000000pt" height="593.000000pt" viewBox="0 0 593.000000 593.000000"
 preserveAspectRatio="xMidYMid meet">

<g transform="translate(0.000000,593.000000) scale(0.100000,-0.100000)"
fill="#000000" stroke="none">
<path d="M1119 3806 c-109 -31 -221 -121 -274 -221 l-26 -50 23 -7 c13 -3 46
-6 73 -7 l50 -1 -52 37 c-29 20 -51 38 -49 40 2 3 27 -7 56 -22 28 -14 63 -30
77 -36 24 -9 25 -8 13 8 -8 10 -34 40 -59 67 -50 53 -43 52 34 -4 79 -58 80
-57 25 24 -28 43 -50 80 -47 82 2 3 34 -28 71 -67 l67 -72 -36 83 c-19 45 -38
86 -41 91 -3 5 -3 9 0 9 3 0 27 -32 53 -71 26 -39 49 -67 50 -63 2 5 -6 44
-16 87 -22 93 -14 89 30 -13 17 -41 33 -77 35 -79 2 -2 2 41 -1 95 l-5 99 22
-82 c12 -46 25 -83 29 -83 4 0 10 34 14 75 4 41 11 75 16 75 5 0 9 -42 10 -92
l1 -93 29 89 c32 99 45 121 36 61 -3 -22 -9 -65 -12 -95 l-6 -55 45 85 c25 47
45 80 45 74 1 -10 -29 -114 -46 -163 -4 -9 17 13 46 49 76 94 77 94 31 1 l-42
-85 50 42 c27 23 55 48 62 57 7 8 17 15 22 15 5 0 -13 -30 -42 -66 -28 -36
-50 -67 -48 -69 2 -2 36 16 76 41 39 24 72 40 71 36 0 -4 -29 -31 -64 -61 -36
-30 -63 -56 -62 -58 2 -1 39 11 82 27 43 17 79 29 81 27 2 -2 -31 -24 -74 -50
-42 -26 -72 -47 -65 -47 6 0 45 7 88 16 42 9 79 14 81 11 2 -2 -37 -21 -88
-41 l-93 -36 100 5 c54 3 96 2 91 -2 -4 -4 -44 -15 -89 -24 -61 -12 -75 -18
-57 -22 14 -3 54 -12 90 -20 l65 -15 -95 -2 -95 -1 65 -25 c36 -13 77 -30 92
-38 25 -14 28 -13 34 7 14 45 6 181 -15 239 -63 179 -233 300 -420 297 -36 0
-87 -7 -112 -13z"/>
<path d="M1207 3498 c-14 -24 -38 -57 -54 -74 -25 -27 -28 -38 -30 -107 l-1
-77 113 0 113 0 -1 78 c-2 65 -5 81 -25 102 -13 14 -37 46 -54 73 -17 26 -32
47 -34 47 -1 0 -13 -19 -27 -42z m13 -164 c0 -45 0 -45 -32 -42 -31 3 -33 6
-36 46 l-3 42 35 0 c36 0 36 0 36 -46z m98 4 c-3 -40 -5 -43 -35 -46 -33 -3
-33 -3 -33 42 0 46 0 46 36 46 l35 0 -3 -42z"/>
<path d="M277 3483 c-4 -3 -7 -35 -7 -70 l0 -63 60 0 60 0 0 -275 0 -274 -57
-3 -58 -3 -3 -67 -3 -68 231 0 230 0 0 70 0 70 -60 0 -60 0 0 110 0 110 90 0
90 0 0 65 0 65 -90 0 -90 0 0 100 0 100 125 0 124 0 3 -57 3 -58 73 -3 72 -3
0 131 0 130 -363 0 c-200 0 -367 -3 -370 -7z"/>
<path d="M2600 3425 l0 -65 45 0 45 0 0 -95 0 -96 -22 21 c-54 51 -123 68
-200 50 -71 -17 -147 -92 -173 -170 -53 -156 3 -329 126 -393 73 -39 145 -35
218 11 l51 31 0 -29 0 -30 140 0 140 0 0 65 0 65 -50 0 -50 0 0 350 0 350
-135 0 -135 0 0 -65z m30 -340 c47 -24 63 -66 58 -151 -3 -68 -6 -77 -36 -107
-63 -62 -158 -35 -182 52 -22 79 -3 167 43 203 27 22 79 23 117 3z"/>
<path d="M3030 3420 l0 -69 58 -3 57 -3 3 -272 2 -273 -60 0 -60 0 0 -70 0
-70 370 0 370 0 0 195 0 195 -80 0 -80 0 0 -125 0 -125 -125 0 -125 0 0 275 0
275 60 0 60 0 0 70 0 70 -225 0 -225 0 0 -70z"/>
<path d="M5295 3391 c-78 -58 -80 -60 -85 -107 -5 -48 -6 -49 -42 -52 l-38 -3
0 -65 0 -64 40 0 40 0 0 -181 c0 -209 6 -228 77 -255 46 -18 123 -15 176 5 25
10 27 14 27 71 l0 61 -35 -7 c-61 -11 -65 0 -65 162 l0 144 50 0 50 0 0 65 0
65 -50 0 -50 0 0 110 c0 61 -3 110 -7 110 -5 -1 -44 -27 -88 -59z"/>
<path d="M805 3283 c11 -61 24 -74 25 -25 0 27 -4 42 -12 42 -9 0 -8 4 2 10
13 8 12 10 -4 10 -16 0 -17 -5 -11 -37z"/>
<path d="M1496 3275 c12 -9 41 -14 84 -14 l65 1 -65 13 c-36 8 -74 14 -84 14
-20 1 -20 1 0 -14z"/>
<path d="M4057 3240 c-135 -34 -215 -129 -225 -269 -7 -103 16 -171 81 -236
64 -64 121 -85 227 -85 66 0 86 4 138 31 113 56 157 141 150 288 -4 98 -30
155 -90 207 -70 58 -192 86 -281 64z m140 -152 c65 -54 69 -216 6 -274 -36
-33 -111 -34 -140 -1 -35 38 -43 63 -43 134 0 78 21 130 60 151 29 15 94 10
117 -10z"/>
<path d="M1865 3228 c-16 -6 -39 -17 -50 -24 -27 -19 -35 -17 -35 6 0 19 -7
20 -135 20 l-135 0 0 -65 0 -65 40 0 40 0 0 -155 0 -155 -40 0 -40 0 0 -65 0
-65 175 0 175 0 0 65 0 65 -40 0 -40 0 0 133 0 133 35 17 c50 24 90 22 109 -5
13 -18 16 -57 16 -215 l0 -193 135 0 135 0 0 65 0 65 -44 0 -44 0 -3 168 c-4
187 -13 215 -79 259 -37 25 -120 30 -175 11z"/>
<path d="M4658 3231 c-80 -26 -135 -108 -123 -182 14 -82 79 -126 236 -159
123 -26 139 -34 139 -65 0 -64 -135 -79 -197 -22 -13 11 -23 26 -23 34 0 9
-18 13 -65 13 l-65 0 0 -95 0 -95 65 0 c36 0 65 4 65 9 0 6 17 3 37 -6 28 -11
61 -14 124 -11 74 3 93 8 129 32 111 73 104 249 -12 304 -24 11 -81 28 -128
37 -153 29 -180 45 -140 85 36 36 170 18 186 -25 5 -11 22 -15 70 -15 l64 0 0
81 0 81 -82 -2 c-46 0 -121 2 -168 4 -47 3 -97 2 -112 -3z"/>
<path d="M1080 3165 l0 -65 45 0 45 0 0 -155 0 -155 -45 0 -45 0 0 -65 0 -65
180 0 180 0 0 65 0 65 -45 0 -45 0 0 220 0 220 -135 0 -135 0 0 -65z"/>
<path d="M1441 3191 c23 -31 36 -35 26 -7 -3 8 -16 20 -27 26 -22 12 -22 11 1
-19z"/>
<path d="M851 3159 c47 -82 175 -182 262 -203 26 -6 27 -5 27 36 l-1 43 -20
-35 -20 -35 6 30 c3 17 9 40 12 53 9 37 -32 28 -57 -14 -26 -41 -38 -39 -16 4
10 19 13 39 8 57 l-8 28 -33 -42 c-49 -61 -50 -42 -2 32 22 35 41 67 41 71 0
5 -16 -3 -35 -18 -100 -75 -110 -81 -96 -61 8 11 31 37 50 58 33 35 34 37 13
37 -13 0 -46 -11 -75 -25 l-52 -26 30 26 30 25 -43 0 -43 0 22 -41z"/>
<path d="M1431 3108 c22 -40 44 -77 50 -83 6 -6 21 2 41 22 17 18 25 31 17 31
-49 -3 -69 3 -69 20 0 17 -58 82 -72 82 -4 0 11 -33 33 -72z"/>
<path d="M1380 3096 c0 -13 7 -43 15 -66 19 -53 19 -59 0 -34 -14 19 -14 18
-15 -3 0 -28 10 -29 61 -3 l40 21 -47 54 c-25 30 -48 55 -50 55 -2 0 -4 -11
-4 -24z"/>
</g>
</svg>
